<svg width="17" height="18" viewBox="0 0 17 18" fill="none" xmlns="http://www.w3.org/2000/svg">
<path d="M8.5 17.5C10.1811 17.5 11.8245 17.0015 13.2223 16.0675C14.6202 15.1335 15.7096 13.806 16.353 12.2528C16.9963 10.6996 17.1646 8.99057 16.8367 7.34173C16.5087 5.6929 15.6992 4.17834 14.5104 2.9896C13.3217 1.80085 11.8071 0.991302 10.1583 0.663328C8.50943 0.335354 6.80036 0.503683 5.24719 1.14703C3.69402 1.79037 2.3665 2.87984 1.43251 4.27766C0.498516 5.67547 0 7.31886 0 9C0 11.2543 0.895533 13.4163 2.48959 15.0104C4.08365 16.6045 6.24566 17.5 8.5 17.5ZM8.5 5.90942L13.1365 10.5459H3.86353L8.5 5.90942Z" fill="black"/>
</svg>
