<svg width="24" height="24" viewBox="0 0 24 24" fill="none" xmlns="http://www.w3.org/2000/svg">
<path d="M11.3757 6.20455H14.6257C14.6257 5.73439 14.4544 5.28349 14.1497 4.95104C13.845 4.61859 13.4316 4.43182 13.0007 4.43182C12.5697 4.43182 12.1563 4.61859 11.8516 4.95104C11.5469 5.28349 11.3757 5.73439 11.3757 6.20455ZM10.2923 6.20455C10.2923 5.42095 10.5777 4.66945 11.0856 4.11537C11.5935 3.56128 12.2824 3.25 13.0007 3.25C13.7189 3.25 14.4078 3.56128 14.9157 4.11537C15.4236 4.66945 15.709 5.42095 15.709 6.20455H21.1257C21.2693 6.20455 21.4071 6.2668 21.5087 6.37762C21.6103 6.48844 21.6673 6.63874 21.6673 6.79545C21.6673 6.95217 21.6103 7.10247 21.5087 7.21329C21.4071 7.32411 21.2693 7.38636 21.1257 7.38636H19.9838L18.6903 19.6111C18.5989 20.4752 18.2194 21.2725 17.6242 21.8513C17.0289 22.4301 16.2594 22.7499 15.462 22.75H10.5393C9.74194 22.7499 8.9724 22.4301 8.37713 21.8513C7.78187 21.2725 7.40242 20.4752 7.31098 19.6111L6.01748 7.38636H4.87565C4.73199 7.38636 4.59422 7.32411 4.49263 7.21329C4.39105 7.10247 4.33398 6.95217 4.33398 6.79545C4.33398 6.63874 4.39105 6.48844 4.49263 6.37762C4.59422 6.2668 4.73199 6.20455 4.87565 6.20455H10.2923ZM11.9173 10.9318C11.9173 10.7751 11.8602 10.6248 11.7587 10.514C11.6571 10.4032 11.5193 10.3409 11.3757 10.3409C11.232 10.3409 11.0942 10.4032 10.9926 10.514C10.8911 10.6248 10.834 10.7751 10.834 10.9318V18.0227C10.834 18.1794 10.8911 18.3297 10.9926 18.4406C11.0942 18.5514 11.232 18.6136 11.3757 18.6136C11.5193 18.6136 11.6571 18.5514 11.7587 18.4406C11.8602 18.3297 11.9173 18.1794 11.9173 18.0227V10.9318ZM14.6257 10.3409C14.482 10.3409 14.3442 10.4032 14.2426 10.514C14.1411 10.6248 14.084 10.7751 14.084 10.9318V18.0227C14.084 18.1794 14.1411 18.3297 14.2426 18.4406C14.3442 18.5514 14.482 18.6136 14.6257 18.6136C14.7693 18.6136 14.9071 18.5514 15.0087 18.4406C15.1103 18.3297 15.1673 18.1794 15.1673 18.0227V10.9318C15.1673 10.7751 15.1103 10.6248 15.0087 10.514C14.9071 10.4032 14.7693 10.3409 14.6257 10.3409Z" fill="#003D5B"/>
</svg>
