<svg width="24" height="24" viewBox="0 0 24 24" fill="none" xmlns="http://www.w3.org/2000/svg">
<rect x="2" y="1" width="22" height="22" fill="#F8F9FA"/>
<path d="M21.3216 2.17969L24.5716 5.42969L22.0941 7.90835L18.8441 4.65835L21.3216 2.17969ZM9.41797 17.3334H12.668L20.5622 9.4391L17.3122 6.1891L9.41797 14.0834V17.3334Z" fill="#003D5B"/>
<path d="M21.3333 20.5833H9.58783C9.55967 20.5833 9.53042 20.5942 9.50225 20.5942C9.4665 20.5942 9.43075 20.5844 9.39392 20.5833H6.16667V5.41667H13.5843L15.7509 3.25H6.16667C4.97175 3.25 4 4.22067 4 5.41667V20.5833C4 21.7793 4.97175 22.75 6.16667 22.75H21.3333C21.908 22.75 22.4591 22.5217 22.8654 22.1154C23.2717 21.7091 23.5 21.158 23.5 20.5833V11.193L21.3333 13.3597V20.5833Z" fill="#003D5B"/>
</svg>
