<svg width="25" height="25" viewBox="0 0 32 36" fill="none" xmlns="http://www.w3.org/2000/svg">
<path d="M30.7899 4.28551H22.7269L22.5846 3.477C22.2305 1.4625 20.475 0 18.411 0H13.5911C11.5269 0 9.77139 1.4625 9.41745 3.477L9.27519 4.28551H1.21068C0.541766 4.28551 0 4.82249 0 5.48551C0 6.14852 0.541766 6.6855 1.21068 6.6855H1.95375L3.46255 32.0475C3.59421 34.263 5.45261 36 7.69239 36H24.3076C26.5474 36 28.4057 34.263 28.5374 32.0475L30.0462 6.6855H30.7893C31.4582 6.6855 32 6.14852 32 5.48551C32 4.82249 31.4582 4.28551 30.7893 4.28551H30.7899ZM11.8001 3.88799C11.953 3.02549 12.7051 2.3985 13.5889 2.3985H18.4088C19.2926 2.3985 20.0463 3.02549 20.1976 3.88799L20.2672 4.28397H11.7289L11.7985 3.88799H11.8001ZM26.1211 31.9034C26.0636 32.8529 25.2675 33.5969 24.3081 33.5969H7.69285C6.73337 33.5969 5.93583 32.8529 5.87984 31.9034L4.38011 6.68389H27.6221L26.1224 31.9034H26.1211Z" fill="#003D5B"/>
<path d="M15.9997 9.8746C15.3308 9.8746 14.7891 10.4116 14.7891 11.0746V29.2082C14.7891 29.8712 15.3308 30.4082 15.9997 30.4082C16.6687 30.4082 17.2104 29.8712 17.2104 29.2082V11.0746C17.2104 10.4116 16.6687 9.8746 15.9997 9.8746Z" fill="#003D5B"/>
<path d="M20.1104 11.0746V29.2082C20.1104 29.8712 20.6521 30.4082 21.321 30.4082C21.99 30.4082 22.5317 29.8712 22.5317 29.2082V11.0746C22.5317 10.4116 21.99 9.8746 21.321 9.8746C20.6521 9.8746 20.1104 10.4116 20.1104 11.0746Z" fill="#003D5B"/>
<path d="M10.6794 9.8746C10.0105 9.8746 9.46875 10.4116 9.46875 11.0746V29.2082C9.46875 29.8712 10.0105 30.4082 10.6794 30.4082C11.3483 30.4082 11.8901 29.8712 11.8901 29.2082V11.0746C11.8901 10.4116 11.3483 9.8746 10.6794 9.8746Z" fill="#003D5B"/>
</svg>
