<svg width="46" height="46" viewBox="0 0 46 46" fill="none" xmlns="http://www.w3.org/2000/svg">
<path fill-rule="evenodd" clip-rule="evenodd" d="M26.478 45.2456C37.4596 43.7152 45.9129 34.2845 45.9129 22.8771H45.9161C45.9161 10.403 35.8062 0.290222 23.3359 0.290222C10.8655 0.290222 0.755615 10.403 0.755615 22.8771C0.755615 34.1183 8.96687 43.443 19.7174 45.1744V29.9752H14.1056V23.3472H19.7174V17.327C19.7174 13.5921 22.7441 10.563 26.4795 10.563V10.5662C26.485 10.5662 26.4902 10.5654 26.4953 10.5646C26.5005 10.5638 26.5056 10.563 26.5111 10.563H32.5644V16.2952H28.609C27.4335 16.2952 26.4795 17.2495 26.4795 18.4254L26.4779 18.4269V23.3472H32.5628L31.5993 29.9752H26.4779V45.2456C26.4779 45.2456 26.478 45.2456 26.478 45.2456Z" fill="white"/>
</svg>
