<svg width="20" height="20" viewBox="0 0 16 16" fill="none" xmlns="http://www.w3.org/2000/svg">
<path fill-rule="evenodd" clip-rule="evenodd" d="M9.648 15.008C9.12 15.128 8.568 15.2 8 15.2C7.432 15.2 6.88 15.136 6.352 15.008L5.608 11.2H4.792V10.4H11.192V11.2H11.992V10.4H14.784C14.072 12.408 12.496 14.008 10.504 14.752L11.192 11.2H10.376L9.632 15.008H9.648ZM15.024 9.6C15.144 9.088 15.2 8.552 15.2 8C15.2 7.448 15.136 6.912 15.024 6.4H12V9.6H15.024ZM11.2 9.6V6.4H4.8V9.6H11.2ZM4 9.6V6.4H0.976C0.856 6.912 0.8 7.448 0.8 8C0.8 8.552 0.864 9.088 0.976 9.6H4ZM1.208 10.4C1.92 12.408 3.496 14.008 5.488 14.752L4.8 11.2H4V10.4H1.208ZM4.8 4.8V5.6H11.2V4.8H10.384L9.64 0.992C9.112 0.872 8.56 0.8 7.992 0.8C7.424 0.8 6.872 0.864 6.344 0.992L5.6 4.8H4.784H4.8ZM14.792 5.6H12V4.8H11.2L10.512 1.248C12.504 1.992 14.08 3.592 14.792 5.6ZM1.208 5.6H4V4.8H4.8L5.488 1.248C3.496 1.992 1.92 3.592 1.208 5.6ZM16 8C16 12.416 12.416 16 8 16C3.584 16 0 12.416 0 8C0 3.584 3.584 0 8 0C12.416 0 16 3.584 16 8Z" fill="white"/>
</svg>
