<svg width="46" height="44" viewBox="0 0 46 44" fill="none" xmlns="http://www.w3.org/2000/svg">
<path d="M34.6028 0.141724H12.0455C5.81366 0.141724 0.743896 5.21298 0.743896 11.4467V32.0894C0.743896 38.323 5.81366 43.3943 12.0455 43.3943H34.6028C40.8346 43.3943 45.9044 38.323 45.9044 32.0894V11.4467C45.9044 5.21298 40.8346 0.141724 34.6028 0.141724ZM4.73075 11.4467C4.73075 7.41265 8.01268 4.12974 12.0455 4.12974H34.6028C38.6356 4.12974 41.9175 7.41265 41.9175 11.4467V32.0894C41.9175 36.1234 38.6356 39.4063 34.6028 39.4063H12.0455C8.01268 39.4063 4.73075 36.1234 4.73075 32.0894V11.4467Z" fill="white"/>
<path d="M23.3247 32.281C29.1198 32.281 33.8371 27.5648 33.8371 21.7654C33.8371 15.9661 29.1223 11.2499 23.3247 11.2499C17.527 11.2499 12.8123 15.9661 12.8123 21.7654C12.8123 27.5648 17.527 32.281 23.3247 32.281ZM23.3247 15.2405C26.9233 15.2405 29.8502 18.1683 29.8502 21.768C29.8502 25.3677 26.9233 28.2955 23.3247 28.2955C19.726 28.2955 16.7991 25.3677 16.7991 21.768C16.7991 18.1683 19.726 15.2405 23.3247 15.2405Z" fill="white"/>
<path d="M34.81 12.9489C36.3705 12.9489 37.6424 11.6791 37.6424 10.1156C37.6424 8.55209 36.373 7.28235 34.81 7.28235C33.2469 7.28235 31.9775 8.55209 31.9775 10.1156C31.9775 11.6791 33.2469 12.9489 34.81 12.9489Z" fill="white"/>
</svg>
