<svg width="31" height="25" viewBox="0 0 31 25" fill="none" xmlns="http://www.w3.org/2000/svg">
<path d="M26.8796 0.900002H26.8799C27.8927 0.902796 28.8632 1.30661 29.579 2.02311C30.2949 2.73961 30.6978 3.71046 30.6997 4.72327V4.72345V10.379V10.3791C30.6984 11.3019 30.3641 12.1932 29.7581 12.8892C29.1712 13.5632 28.3678 14.0101 27.4875 14.1541V17.6952V17.6955H27.3875C27.3878 17.7877 27.3634 17.8782 27.317 17.9579C27.2705 18.0375 27.2037 18.1033 27.1233 18.1485L26.8796 0.900002ZM26.8796 0.900002H16.9276M26.8796 0.900002L13.0973 6.6825M13.0973 6.6825V4.72345V4.72336C13.0977 4.22081 13.1972 3.72327 13.3899 3.25914C13.5827 2.79502 13.8649 2.37341 14.2206 2.01838C14.5763 1.66335 14.9984 1.38185 15.4629 1.18996C15.9274 0.998072 16.4251 0.899545 16.9276 0.900002M13.0973 6.6825H4.64876H4.64867C3.63341 6.68344 2.66006 7.0874 1.9425 7.80562C1.22494 8.52384 0.821875 9.49757 0.821875 10.5128L0.821875 16.1683L0.821875 16.1685C0.823115 17.0913 1.15746 17.9826 1.76343 18.6786C2.35031 19.3526 3.15377 19.7995 4.034 19.9434L4.03399 23.4883L4.034 23.4889C4.03464 23.5985 4.0646 23.706 4.12075 23.8001C4.17691 23.8943 4.25723 23.9717 4.35338 24.0244C4.44954 24.0771 4.55803 24.1031 4.66761 24.0997C4.7772 24.0963 4.88389 24.0637 4.97663 24.0053L4.97669 24.0052L11.3319 19.9918H14.6249L14.6253 19.9918C15.6363 19.9871 16.6043 19.5823 17.3175 18.8657C18.0308 18.1492 18.4312 17.1793 18.4312 16.1683V14.2093H20.2137L13.0973 6.6825ZM16.9276 0.900002C16.9276 0.900002 16.9276 0.900002 16.9277 0.900002L16.9276 1V0.900002H16.9276ZM20.3898 12.9729C20.508 12.9721 20.6237 13.0063 20.7224 13.0712C20.7227 13.0714 20.723 13.0716 20.7233 13.0718L26.2649 16.5804V13.5877C26.2649 13.4246 26.3297 13.2683 26.4449 13.153C26.5602 13.0377 26.7165 12.9729 26.8795 12.9729C27.5676 12.972 28.2273 12.6985 28.7141 12.2123C29.2009 11.7261 29.4752 11.0669 29.477 10.3788C29.477 10.3788 29.477 10.3788 29.477 10.3787L29.4701 4.73057C29.4684 4.04252 29.1941 3.38319 28.7072 2.89697C28.2204 2.41077 27.5608 2.13729 26.8728 2.13639C26.8727 2.13639 26.8727 2.13639 26.8727 2.13639H16.9208C16.9208 2.13639 16.9208 2.13639 16.9207 2.13639C16.2331 2.13729 15.5738 2.41087 15.0875 2.89714C14.6012 3.38343 14.3277 4.04273 14.3268 4.73044V6.68937H14.6077H14.6078C15.6215 6.6903 16.5935 7.09342 17.3103 7.81023C18.0271 8.52705 18.4302 9.49899 18.4312 10.5127V10.5128V12.9729H20.3898ZM20.3898 12.9729H20.3902V13.0729L20.3895 12.9729C20.3896 12.9729 20.3897 12.9729 20.3898 12.9729ZM16.4409 18.0015C16.9272 17.5152 17.2008 16.8559 17.2016 16.1682L17.1982 10.5129C17.1973 9.82523 16.9237 9.16593 16.4374 8.67964C15.9512 8.19335 15.2919 7.91977 14.6041 7.91889H4.65232C3.96426 7.91976 3.30459 8.19325 2.81775 8.67947C2.33094 9.16566 2.05662 9.82493 2.05483 10.5129V16.1545C2.05662 16.8425 2.33094 17.5018 2.81775 17.988C3.30459 18.4742 3.96426 18.7477 4.65232 18.7485C4.81532 18.7486 4.97163 18.8133 5.08689 18.9286C5.20218 19.0439 5.26695 19.2003 5.26695 19.3633V22.3697L10.8051 18.8612C10.8054 18.861 10.8057 18.8608 10.806 18.8606C10.9046 18.7957 11.0203 18.7615 11.1384 18.7623M16.4409 18.0015L11.1382 18.8623M16.4409 18.0015C15.9546 18.4878 15.2953 18.7614 14.6076 18.7623M16.4409 18.0015L14.6077 18.8623M11.1384 18.7623C11.1386 18.7623 11.1388 18.7623 11.139 18.7623L11.1382 18.8623M11.1384 18.7623H11.1382V18.8623M11.1384 18.7623H14.6076M11.1382 18.8623H14.6077M14.6076 18.7623L14.6077 18.8623M14.6076 18.7623H14.6077V18.8623M5.26695 22.4881L5.16695 22.5514V22.433L5.26695 22.4881Z" fill="white" stroke="white" stroke-width="0.2"/>
<path d="M10.0879 9.92406C10.045 9.83885 9.97934 9.76722 9.89814 9.71717C9.81694 9.66713 9.72343 9.64062 9.62805 9.64062C9.53267 9.64062 9.43916 9.66713 9.35796 9.71717C9.27676 9.76722 9.21106 9.83885 9.1682 9.92406L5.99382 16.1767C5.95918 16.2372 5.93719 16.3041 5.92919 16.3734C5.92118 16.4426 5.92733 16.5128 5.94725 16.5796C5.96718 16.6464 6.00047 16.7085 6.0451 16.762C6.08973 16.8156 6.14478 16.8595 6.20691 16.8912C6.26903 16.9228 6.33693 16.9415 6.4065 16.9461C6.47606 16.9507 6.54584 16.9412 6.6116 16.918C6.67735 16.8948 6.73772 16.8585 6.78903 16.8113C6.84034 16.7642 6.88153 16.707 6.9101 16.6434L8.00483 14.4883H11.2513L12.3323 16.6434C12.3608 16.707 12.402 16.7642 12.4533 16.8113C12.5047 16.8585 12.565 16.8948 12.6308 16.918C12.6965 16.9412 12.7663 16.9507 12.8359 16.9461C12.9054 16.9415 12.9733 16.9228 13.0355 16.8912C13.0976 16.8595 13.1526 16.8156 13.1973 16.762C13.2419 16.7085 13.2752 16.6464 13.2951 16.5796C13.315 16.5128 13.3212 16.4426 13.3132 16.3734C13.3052 16.3041 13.2832 16.2372 13.2485 16.1767L10.0879 9.92406ZM8.52646 13.4588L9.62805 11.2933L10.7262 13.4588H8.52646Z" fill="white"/>
<path d="M24.9083 9.96767L22.9007 8.61556C23.3164 7.95823 23.6615 7.25885 23.9303 6.52906H24.6166C24.7531 6.52906 24.8841 6.47482 24.9806 6.37829C25.0771 6.28175 25.1314 6.15082 25.1314 6.01429C25.1314 5.87777 25.0771 5.74684 24.9806 5.6503C24.8841 5.55377 24.7531 5.49953 24.6166 5.49953H22.537V4.42883C22.537 4.2923 22.4827 4.16137 22.3862 4.06483C22.2897 3.9683 22.1587 3.91406 22.0222 3.91406C21.8857 3.91406 21.7548 3.9683 21.6582 4.06483C21.5617 4.16137 21.5075 4.2923 21.5075 4.42883V5.49953H19.1945C19.0579 5.49953 18.927 5.55377 18.8305 5.6503C18.7339 5.74684 18.6797 5.87777 18.6797 6.01429C18.6797 6.15082 18.7339 6.28175 18.8305 6.37829C18.927 6.47482 19.0579 6.52906 19.1945 6.52906H22.8355C22.6161 7.05295 22.3521 7.55699 22.0462 8.0356L20.7525 7.16393C20.6369 7.08748 20.4956 7.06008 20.3599 7.08775C20.2241 7.11542 20.1048 7.19591 20.0284 7.3115C19.9519 7.42709 19.9245 7.56831 19.9522 7.70411C19.9799 7.8399 20.0603 7.95914 20.1759 8.0356L21.4525 8.89353C21.0532 9.39847 20.6086 9.86598 20.1245 10.2903C20.0221 10.3813 19.96 10.5092 19.952 10.646C19.9439 10.7828 19.9905 10.9171 20.0816 11.0195C20.1726 11.1219 20.3005 11.1839 20.4373 11.192C20.5741 11.2 20.7084 11.1534 20.8108 11.0624C21.3615 10.5797 21.8658 10.0466 22.3173 9.47007L24.3421 10.8428C24.4262 10.8993 24.5255 10.9292 24.6269 10.9286C24.7369 10.9283 24.8438 10.8928 24.9321 10.8273C25.0204 10.7618 25.0855 10.6698 25.1177 10.5647C25.1499 10.4596 25.1476 10.3469 25.1112 10.2432C25.0748 10.1395 25.0061 10.0501 24.9152 9.98826L24.9083 9.96767Z" fill="white"/>
</svg>
