<svg width="46" height="46" viewBox="0 0 46 46" fill="none" xmlns="http://www.w3.org/2000/svg">
<path fill-rule="evenodd" clip-rule="evenodd" d="M0.0498047 1.46168C0.0498047 0.758104 0.620166 0.187744 1.32374 0.187744H43.9363C44.6399 0.187744 45.2103 0.758105 45.2103 1.46168V44.0743C45.2103 44.7779 44.6399 45.3482 43.9363 45.3482H1.32374C0.620165 45.3482 0.0498047 44.7779 0.0498047 44.0743V1.46168ZM5.57831 11.8682C4.72687 11.0777 4.30344 10.0991 4.30344 8.93484C4.30344 7.77056 4.72913 6.74894 5.57831 5.95614C6.42976 5.16561 7.52577 4.76921 8.86861 4.76921C10.2114 4.76921 11.2644 5.16561 12.1136 5.95614C12.9651 6.74668 13.3885 7.74111 13.3885 8.93484C13.3885 10.1286 12.9628 11.0777 12.1136 11.8682C11.2622 12.6587 10.182 13.0551 8.86861 13.0551C7.55521 13.0551 6.42976 12.6587 5.57831 11.8682ZM12.6729 16.403V40.6401H5.01673V16.403H12.6729ZM40.662 26.2631C40.662 23.0965 39.8287 20.6093 38.1598 18.7972C36.4931 16.9851 34.2604 16.079 31.466 16.079C29.8967 16.079 28.486 16.3848 27.2314 16.9987C25.9769 17.6125 24.9782 18.4461 24.2378 19.5017V16.335H16.9235V40.2119H24.2378V27.2462C24.2378 25.6492 24.6522 24.408 25.4787 23.5246C26.3052 22.6389 27.4194 22.1972 28.8143 22.1972C30.2092 22.1972 31.3234 22.6411 32.1499 23.5246C32.9764 24.408 33.3908 25.6492 33.3908 27.2462V40.2119H40.662V26.2631Z" fill="white"/>
</svg>
