<svg width="30" height="20" viewBox="0 0 33 29" fill="none" xmlns="http://www.w3.org/2000/svg">
<path d="M16.312 27.7597L16.3121 27.7597C16.397 27.8567 16.5197 27.9127 16.6491 27.9127C16.7785 27.9127 16.9012 27.8567 16.9861 27.7597L16.9862 27.7597L20.9658 23.2079H29.7485C31.2097 23.2079 32.3982 22.0193 32.3982 20.5582V3.54972C32.3982 2.08856 31.2097 0.9 29.7485 0.9H3.54972C2.08856 0.9 0.9 2.08856 0.9 3.54972V20.5582C0.9 22.0193 2.08856 23.2079 3.54972 23.2079H12.3324L16.312 27.7597ZM20.4256 22.4656L20.4255 22.4657L16.6491 26.7851L12.8727 22.4657L12.8726 22.4656C12.7877 22.3686 12.6651 22.3126 12.5356 22.3126H3.54972C2.58249 22.3126 1.79532 21.5254 1.79532 20.5582V3.54972C1.79532 2.58249 2.58249 1.79532 3.54972 1.79532H29.7482C30.7154 1.79532 31.5026 2.58249 31.5026 3.54972L31.5029 20.5582C31.5029 21.5254 30.7157 22.3126 29.7485 22.3126H20.7626C20.6332 22.3126 20.5105 22.3686 20.4256 22.4656Z" fill="#00E47C" stroke="#00E47C" stroke-width="0.2"/>
<path d="M8.41863 2.96875H3.31641C3.1245 2.96875 2.96875 3.1245 2.96875 3.31641C2.96875 3.50831 3.1245 3.66407 3.31641 3.66407H8.41863C8.61054 3.66407 8.76629 3.50831 8.76629 3.31641C8.76629 3.1245 8.61054 2.96875 8.41863 2.96875Z" fill="#00E47C"/>
<path d="M8.41863 4.71875H3.31641C3.1245 4.71875 2.96875 4.8745 2.96875 5.06641C2.96875 5.25831 3.1245 5.41407 3.31641 5.41407H8.41863C8.61054 5.41407 8.76629 5.25831 8.76629 5.06641C8.76629 4.8745 8.61054 4.71875 8.41863 4.71875Z" fill="#00E47C"/>
<path d="M8.41863 6.45312H3.31641C3.1245 6.45312 2.96875 6.60888 2.96875 6.80078C2.96875 6.99269 3.1245 7.14844 3.31641 7.14844H8.41863C8.61054 7.14844 8.76629 6.99269 8.76629 6.80078C8.76629 6.60888 8.61054 6.45312 8.41863 6.45312Z" fill="#00E47C"/>
<path d="M8.41863 8.21094H3.31641C3.1245 8.21094 2.96875 8.36669 2.96875 8.5586C2.96875 8.7505 3.1245 8.90625 3.31641 8.90625H8.41863C8.61054 8.90625 8.76629 8.7505 8.76629 8.5586C8.76629 8.36669 8.61054 8.21094 8.41863 8.21094Z" fill="#00E47C"/>
<path d="M20.4229 8.875C19.3452 8.875 18.4688 9.75179 18.4688 10.8295C18.4688 11.0214 18.6245 11.1772 18.8164 11.1772C19.0083 11.1772 19.1641 11.0214 19.1641 10.8295C19.1641 10.1353 19.729 9.57032 20.4229 9.57032C20.7501 9.57032 21.0637 9.70382 21.306 9.94613C21.5483 10.1885 21.6818 10.5024 21.6818 10.8295C21.6818 11.3149 21.4106 11.7487 20.9747 11.9615C20.4281 12.2285 20.0753 12.8227 20.0753 13.4749V13.7457C20.0753 13.9376 20.231 14.0933 20.4229 14.0933C20.6148 14.0933 20.7706 13.9376 20.7706 13.7457V13.4749C20.7706 13.0862 20.9705 12.7375 21.2799 12.5862C21.9565 12.2556 22.3771 11.5826 22.3771 10.8295C22.3771 10.3164 22.1713 9.82828 21.7976 9.45455C21.4238 9.08081 20.9357 8.875 20.4229 8.875Z" fill="#00E47C"/>
<path d="M20.6691 14.6355C20.5405 14.5069 20.3076 14.5069 20.1789 14.6355C20.1477 14.6668 20.1198 14.7051 20.1025 14.7468C20.0851 14.792 20.0781 14.8372 20.0781 14.8824C20.0781 14.9728 20.1129 15.0632 20.1789 15.1257C20.2102 15.1605 20.2485 15.1848 20.2902 15.2022C20.3354 15.2196 20.3806 15.23 20.4258 15.23C20.5162 15.23 20.6066 15.1918 20.6691 15.1257C20.7352 15.0632 20.7734 14.9728 20.7734 14.8824C20.7734 14.8372 20.763 14.792 20.7456 14.7468C20.7282 14.7051 20.7039 14.6668 20.6691 14.6355Z" fill="#00E47C"/>
<path d="M20.4256 2.97656C15.4179 2.97656 11.3438 7.05076 11.3438 12.0584C11.3438 17.0661 15.4179 21.1403 20.4256 21.1403C25.4333 21.1403 29.5075 17.0661 29.5075 12.0584C29.5075 7.05076 25.4333 2.97656 20.4256 2.97656ZM27.5738 7.67759L25.9721 8.80365C25.4169 7.86185 24.6218 7.06675 23.68 6.51154L24.8061 4.91023C25.9315 5.60242 26.8816 6.55257 27.5738 7.67759ZM23.1259 16.8165C23.0317 16.6826 22.8571 16.6326 22.7069 16.6958C21.2548 17.306 19.5978 17.306 18.1446 16.6958C18.1012 16.6774 18.0553 16.6687 18.0101 16.6687C17.8995 16.6687 17.7925 16.7216 17.7257 16.8165L17.5706 17.0369C16.6928 16.5314 15.953 15.7912 15.4475 14.9137L15.6679 14.7587C15.8014 14.6648 15.8518 14.4903 15.7886 14.3397C15.4837 13.6135 15.3289 12.8459 15.3289 12.0584C15.3289 11.271 15.4837 10.5037 15.7886 9.77744C15.8518 9.6269 15.8018 9.45238 15.6679 9.35851L15.564 9.2855L15.4475 9.20346C15.9533 8.32562 16.6932 7.58546 17.571 7.07996L17.726 7.30073C17.8203 7.43423 17.9944 7.48394 18.1453 7.42136C19.5971 6.81123 21.2562 6.81123 22.7073 7.42136C22.8582 7.48429 23.0323 7.43423 23.1266 7.30073L23.282 7.07996C24.1598 7.58546 24.8996 8.32562 25.4051 9.20311L25.1843 9.35851C25.0505 9.45273 25.0004 9.6269 25.0637 9.77744C25.3686 10.5033 25.5233 11.2706 25.5233 12.0584C25.5233 12.8462 25.3686 13.6138 25.0637 14.3397C25.0004 14.4903 25.0505 14.6648 25.1843 14.759L25.4051 14.9141C24.8993 15.7919 24.1595 16.5317 23.282 17.0376L23.1266 16.8168L23.1259 16.8165ZM24.1956 4.57057L22.8863 6.43263L22.7149 6.67668C21.2482 6.1319 19.6044 6.13155 18.1373 6.67668L17.9621 6.42706C17.9621 6.42706 17.9618 6.42672 17.9614 6.42637L16.6567 4.57057C17.7911 3.99728 19.0711 3.67188 20.4263 3.67188C21.7815 3.67188 23.0615 3.99694 24.1956 4.57057ZM16.0451 4.91058L17.1712 6.51189C16.2294 7.0671 15.4343 7.86219 14.8791 8.804L13.2774 7.67794C13.9696 6.55257 14.9201 5.60277 16.0451 4.91058ZM12.9378 8.28877L15.0439 9.76979C14.7713 10.5037 14.6333 11.2724 14.6333 12.0584C14.6333 12.8445 14.7713 13.6135 15.0439 14.3474L14.7946 14.5226L12.9381 15.8281C12.3648 14.6937 12.0394 13.4136 12.0394 12.0581C12.0394 10.7026 12.3645 9.42248 12.9381 8.28842L12.9378 8.28877ZM13.2778 16.4393L14.8791 15.3132C15.4343 16.255 16.2294 17.0501 17.1712 17.6053L16.0451 19.2066C14.9198 18.5144 13.97 17.5646 13.2778 16.4393ZM16.656 19.5466L18.1366 17.4409C18.8705 17.7134 19.6392 17.8514 20.4256 17.8514C21.212 17.8514 21.9807 17.7134 22.7142 17.4409L22.7532 17.4965L24.1949 19.547C23.0605 20.1203 21.7804 20.4457 20.4253 20.4457C19.0701 20.4457 17.7897 20.1206 16.6556 19.547L16.656 19.5466ZM24.8064 19.2066L23.6804 17.6053C24.6222 17.0501 25.4173 16.255 25.9725 15.3132L27.5738 16.4393C26.8816 17.5646 25.9315 18.5144 24.8064 19.2066ZM27.9138 15.8284L26.0577 14.5233C26.0577 14.5233 26.0577 14.523 26.0573 14.5226L25.8077 14.3474C26.0803 13.6138 26.2183 12.8452 26.2183 12.0588C26.2183 11.2724 26.0803 10.5037 25.8077 9.77014L26.0205 9.6203L27.9138 8.28912C28.4871 9.42352 28.8125 10.7036 28.8125 12.0588C28.8125 13.4139 28.4874 14.6944 27.9138 15.8284Z" fill="#00E47C"/>
</svg>
