<svg width="33" height="29" viewBox="0 0 33 29" fill="none" xmlns="http://www.w3.org/2000/svg">
<path d="M16.312 27.7909L16.3121 27.791C16.397 27.888 16.5197 27.944 16.6491 27.944C16.7785 27.944 16.9012 27.888 16.9861 27.791L16.9862 27.7909L20.9658 23.2391H29.7485C31.2097 23.2391 32.3982 22.0506 32.3982 20.5894V3.58097C32.3982 2.11981 31.2097 0.93125 29.7485 0.93125H3.54972C2.08856 0.93125 0.9 2.11981 0.9 3.58097V20.5894C0.9 22.0506 2.08856 23.2391 3.54972 23.2391H12.3324L16.312 27.7909ZM20.4256 22.4969L20.4255 22.4969L16.6491 26.8163L12.8727 22.4969L12.8727 22.4969C12.7877 22.3998 12.6651 22.3438 12.5356 22.3438H3.54972C2.58249 22.3438 1.79532 21.5567 1.79532 20.5894V3.58097C1.79532 2.61374 2.58249 1.82657 3.54972 1.82657H29.7482C30.7154 1.82657 31.5026 2.61374 31.5026 3.58097L31.5029 20.5894C31.5029 21.5567 30.7157 22.3438 29.7485 22.3438H20.7626C20.6332 22.3438 20.5105 22.3998 20.4256 22.4969Z" fill="#00E47C" stroke="#00E47C" stroke-width="0.2"/>
<path d="M8.41863 3H3.31641C3.1245 3 2.96875 3.15575 2.96875 3.34766C2.96875 3.53956 3.1245 3.69532 3.31641 3.69532H8.41863C8.61054 3.69532 8.76629 3.53956 8.76629 3.34766C8.76629 3.15575 8.61054 3 8.41863 3Z" fill="#00E47C"/>
<path d="M8.41863 4.75H3.31641C3.1245 4.75 2.96875 4.90575 2.96875 5.09766C2.96875 5.28956 3.1245 5.44532 3.31641 5.44532H8.41863C8.61054 5.44532 8.76629 5.28956 8.76629 5.09766C8.76629 4.90575 8.61054 4.75 8.41863 4.75Z" fill="#00E47C"/>
<path d="M8.41863 6.48438H3.31641C3.1245 6.48438 2.96875 6.64013 2.96875 6.83203C2.96875 7.02394 3.1245 7.17969 3.31641 7.17969H8.41863C8.61054 7.17969 8.76629 7.02394 8.76629 6.83203C8.76629 6.64013 8.61054 6.48438 8.41863 6.48438Z" fill="#00E47C"/>
<path d="M8.41863 8.24219H3.31641C3.1245 8.24219 2.96875 8.39794 2.96875 8.58985C2.96875 8.78175 3.1245 8.9375 3.31641 8.9375H8.41863C8.61054 8.9375 8.76629 8.78175 8.76629 8.58985C8.76629 8.39794 8.61054 8.24219 8.41863 8.24219Z" fill="#00E47C"/>
<path d="M20.4229 8.90625C19.3452 8.90625 18.4688 9.78304 18.4688 10.8608C18.4688 11.0527 18.6245 11.2084 18.8164 11.2084C19.0083 11.2084 19.1641 11.0527 19.1641 10.8608C19.1641 10.1665 19.729 9.60157 20.4229 9.60157C20.7501 9.60157 21.0637 9.73507 21.306 9.97738C21.5483 10.2197 21.6818 10.5336 21.6818 10.8608C21.6818 11.3461 21.4106 11.78 20.9747 11.9928C20.4281 12.2598 20.0753 12.8539 20.0753 13.5061V13.7769C20.0753 13.9688 20.231 14.1246 20.4229 14.1246C20.6148 14.1246 20.7706 13.9688 20.7706 13.7769V13.5061C20.7706 13.1174 20.9705 12.7687 21.2799 12.6175C21.9565 12.2869 22.3771 11.6138 22.3771 10.8608C22.3771 10.3476 22.1713 9.85953 21.7976 9.4858C21.4238 9.11206 20.9357 8.90625 20.4229 8.90625Z" fill="#00E47C"/>
<path d="M20.6691 14.6668C20.5405 14.5382 20.3076 14.5382 20.1789 14.6668C20.1477 14.6981 20.1198 14.7363 20.1025 14.778C20.0851 14.8232 20.0781 14.8684 20.0781 14.9136C20.0781 15.004 20.1129 15.0944 20.1789 15.157C20.2102 15.1918 20.2485 15.2161 20.2902 15.2335C20.3354 15.2509 20.3806 15.2613 20.4258 15.2613C20.5162 15.2613 20.6066 15.223 20.6691 15.157C20.7352 15.0944 20.7734 15.004 20.7734 14.9136C20.7734 14.8684 20.763 14.8232 20.7456 14.778C20.7282 14.7363 20.7039 14.6981 20.6691 14.6668Z" fill="#00E47C"/>
<path d="M20.4256 3.00781C15.4179 3.00781 11.3438 7.08201 11.3438 12.0897C11.3438 17.0973 15.4179 21.1715 20.4256 21.1715C25.4333 21.1715 29.5075 17.0973 29.5075 12.0897C29.5075 7.08201 25.4333 3.00781 20.4256 3.00781ZM27.5738 7.70884L25.9721 8.8349C25.4169 7.8931 24.6218 7.098 23.68 6.54279L24.8061 4.94148C25.9315 5.63367 26.8816 6.58382 27.5738 7.70884ZM23.1259 16.8477C23.0317 16.7139 22.8571 16.6638 22.7069 16.7271C21.2548 17.3372 19.5978 17.3372 18.1446 16.7271C18.1012 16.7086 18.0553 16.7 18.0101 16.7C17.8995 16.7 17.7925 16.7528 17.7257 16.8477L17.5706 17.0681C16.6928 16.5626 15.953 15.8225 15.4475 14.945L15.6679 14.7899C15.8014 14.6961 15.8518 14.5215 15.7886 14.371C15.4837 13.6447 15.3289 12.8771 15.3289 12.0897C15.3289 11.3022 15.4837 10.5349 15.7886 9.80869C15.8518 9.65815 15.8018 9.48363 15.6679 9.38976L15.564 9.31675L15.4475 9.23471C15.9533 8.35687 16.6932 7.61671 17.571 7.11121L17.726 7.33198C17.8203 7.46548 17.9944 7.51519 18.1453 7.45261C19.5971 6.84248 21.2562 6.84248 22.7073 7.45261C22.8582 7.51554 23.0323 7.46548 23.1266 7.33198L23.282 7.11121C24.1598 7.61671 24.8996 8.35687 25.4051 9.23436L25.1843 9.38976C25.0505 9.48398 25.0004 9.65815 25.0637 9.80869C25.3686 10.5346 25.5233 11.3019 25.5233 12.0897C25.5233 12.8775 25.3686 13.6451 25.0637 14.371C25.0004 14.5215 25.0505 14.6961 25.1843 14.7903L25.4051 14.9453C24.8993 15.8232 24.1595 16.563 23.282 17.0688L23.1266 16.8481L23.1259 16.8477ZM24.1956 4.60182L22.8863 6.46388L22.7149 6.70793C21.2482 6.16315 19.6044 6.1628 18.1373 6.70793L17.9621 6.45831C17.9621 6.45831 17.9618 6.45797 17.9614 6.45762L16.6567 4.60182C17.7911 4.02853 19.0711 3.70313 20.4263 3.70313C21.7815 3.70313 23.0615 4.02819 24.1956 4.60182ZM16.0451 4.94183L17.1712 6.54314C16.2294 7.09835 15.4343 7.89344 14.8791 8.83525L13.2774 7.70919C13.9696 6.58382 14.9201 5.63402 16.0451 4.94183ZM12.9378 8.32002L15.0439 9.80104C14.7713 10.5349 14.6333 11.3036 14.6333 12.0897C14.6333 12.8757 14.7713 13.6447 15.0439 14.3786L14.7946 14.5539L12.9381 15.8593C12.3648 14.7249 12.0394 13.4448 12.0394 12.0893C12.0394 10.7338 12.3645 9.45373 12.9381 8.31967L12.9378 8.32002ZM13.2778 16.4705L14.8791 15.3444C15.4343 16.2862 16.2294 17.0813 17.1712 17.6365L16.0451 19.2379C14.9198 18.5457 13.97 17.5959 13.2778 16.4705ZM16.656 19.5779L18.1366 17.4721C18.8705 17.7447 19.6392 17.8827 20.4256 17.8827C21.212 17.8827 21.9807 17.7447 22.7142 17.4721L22.7532 17.5277L24.1949 19.5782C23.0605 20.1515 21.7804 20.4769 20.4253 20.4769C19.0701 20.4769 17.7897 20.1518 16.6556 19.5782L16.656 19.5779ZM24.8064 19.2379L23.6804 17.6365C24.6222 17.0813 25.4173 16.2862 25.9725 15.3444L27.5738 16.4705C26.8816 17.5959 25.9315 18.5457 24.8064 19.2379ZM27.9138 15.8597L26.0577 14.5546C26.0577 14.5546 26.0577 14.5542 26.0573 14.5539L25.8077 14.3786C26.0803 13.6451 26.2183 12.8764 26.2183 12.09C26.2183 11.3036 26.0803 10.5349 25.8077 9.80139L26.0205 9.65155L27.9138 8.32037C28.4871 9.45477 28.8125 10.7348 28.8125 12.09C28.8125 13.4452 28.4874 14.7256 27.9138 15.8597Z" fill="#00E47C"/>
</svg>
