<svg width="34" height="31" viewBox="0 0 34 31" fill="none" xmlns="http://www.w3.org/2000/svg">
<path d="M15.2059 28.0285L15.2044 28.0271C10.8072 24.0647 7.23812 20.8423 4.75669 17.8254C2.28606 14.8216 1 12.1452 1 9.29155C1 4.63076 4.65917 1 9.35 1C12.008 1 14.5739 2.23478 16.2432 4.16753L17 5.04381L17.7568 4.16753C19.4261 2.23478 21.992 1 24.65 1C29.3408 1 33 4.63076 33 9.29155C33 12.1452 31.7139 14.8216 29.2433 17.8254C26.7619 20.8423 23.1928 24.0647 18.7956 28.0271L18.7941 28.0285L17 29.6515L15.2059 28.0285Z" fill="#EE6541" stroke="#EE6541" stroke-width="2"/>
</svg>
