<svg width="31" height="29" viewBox="0 0 31 29" fill="none" xmlns="http://www.w3.org/2000/svg">
<path d="M13.9328 26.181L13.9314 26.1796C9.92076 22.4716 6.67142 19.4613 4.41305 16.6441C2.16623 13.8414 1 11.3487 1 8.6921C1 4.34382 4.32032 1 8.525 1C10.9124 1 13.2259 2.13845 14.735 3.93118L15.5 4.84002L16.265 3.93118C17.7741 2.13845 20.0876 1 22.475 1C26.6797 1 30 4.34382 30 8.6921C30 11.3487 28.8338 13.8414 26.587 16.6441C24.3286 19.4613 21.0792 22.4716 17.0686 26.1796L17.0672 26.181L15.5 27.6356L13.9328 26.181Z" stroke="black" stroke-width="2"/>
</svg>
