<svg width="45" height="33" viewBox="0 0 45 33" fill="none" xmlns="http://www.w3.org/2000/svg">
<path d="M44.2188 9.42872C43.9452 6.73797 43.3566 3.76347 41.19 2.20029C39.512 0.988088 37.3064 0.943273 35.2473 0.945763C30.8947 0.945763 26.5396 0.95324 22.187 0.955729C18.0005 0.960707 13.8139 0.963193 9.62739 0.968171C7.87852 0.968171 6.1785 0.831266 4.55421 1.6029C3.15951 2.265 2.06769 3.52451 1.41065 4.92589C0.499574 6.87488 0.309064 9.08274 0.19915 11.2383C-0.0035821 15.1637 0.0184008 19.099 0.260213 23.0219C0.438519 25.8844 0.890384 29.048 3.06181 30.8726C4.98654 32.488 7.70265 32.5677 10.1989 32.5702C18.1226 32.5776 26.0487 32.5851 33.9747 32.5901C34.9908 32.5926 36.0509 32.5727 37.0865 32.4582C39.1236 32.2341 41.0654 31.6392 42.3746 30.1009C43.6961 28.5502 44.0356 26.3921 44.2359 24.3486C44.7244 19.3902 44.7195 14.3846 44.2188 9.42872ZM17.6048 23.7188V9.81702L29.417 16.7667L17.6048 23.7188Z" fill="white"/>
</svg>
